<mxfile host="app.diagrams.net" agent="Mozilla/5.0 (Windows NT 10.0; Win64; x64; rv:131.0) Gecko/20100101 Firefox/131.0" version="24.8.3" pages="2">
  <diagram name="Page-1" id="NCmZZB34JmAmDUR9-DYk">
    <mxGraphModel grid="1" page="1" gridSize="10" guides="1" tooltips="1" connect="1" arrows="1" fold="1" pageScale="1" pageWidth="850" pageHeight="1100" math="0" shadow="0">
      <root>
        <mxCell id="0" />
        <mxCell id="1" parent="0" />
        <mxCell id="cg0EDjOptyZqs2Iak0Le-7" style="rounded=0;orthogonalLoop=1;jettySize=auto;html=1;entryX=0;entryY=0.5;entryDx=0;entryDy=0;" edge="1" parent="1" source="mLHnHa8LqFLfgTgDsuUu-2" target="mLHnHa8LqFLfgTgDsuUu-5">
          <mxGeometry relative="1" as="geometry" />
        </mxCell>
        <mxCell id="cg0EDjOptyZqs2Iak0Le-8" style="rounded=0;orthogonalLoop=1;jettySize=auto;html=1;entryX=0;entryY=0.5;entryDx=0;entryDy=0;" edge="1" parent="1" source="mLHnHa8LqFLfgTgDsuUu-2" target="mLHnHa8LqFLfgTgDsuUu-4">
          <mxGeometry relative="1" as="geometry" />
        </mxCell>
        <mxCell id="cg0EDjOptyZqs2Iak0Le-9" style="rounded=0;orthogonalLoop=1;jettySize=auto;html=1;entryX=0;entryY=0.5;entryDx=0;entryDy=0;" edge="1" parent="1" source="mLHnHa8LqFLfgTgDsuUu-2" target="mLHnHa8LqFLfgTgDsuUu-7">
          <mxGeometry relative="1" as="geometry" />
        </mxCell>
        <mxCell id="cg0EDjOptyZqs2Iak0Le-10" style="rounded=0;orthogonalLoop=1;jettySize=auto;html=1;entryX=0.1;entryY=0.725;entryDx=0;entryDy=0;entryPerimeter=0;" edge="1" parent="1" source="mLHnHa8LqFLfgTgDsuUu-2" target="cg0EDjOptyZqs2Iak0Le-1">
          <mxGeometry relative="1" as="geometry" />
        </mxCell>
        <mxCell id="cg0EDjOptyZqs2Iak0Le-16" style="rounded=0;orthogonalLoop=1;jettySize=auto;html=1;entryX=0;entryY=0.5;entryDx=0;entryDy=0;" edge="1" parent="1" source="mLHnHa8LqFLfgTgDsuUu-2" target="cg0EDjOptyZqs2Iak0Le-15">
          <mxGeometry relative="1" as="geometry" />
        </mxCell>
        <mxCell id="cg0EDjOptyZqs2Iak0Le-17" style="rounded=0;orthogonalLoop=1;jettySize=auto;html=1;entryX=0;entryY=0.5;entryDx=0;entryDy=0;" edge="1" parent="1" source="mLHnHa8LqFLfgTgDsuUu-2" target="mLHnHa8LqFLfgTgDsuUu-6">
          <mxGeometry relative="1" as="geometry" />
        </mxCell>
        <mxCell id="cg0EDjOptyZqs2Iak0Le-26" style="rounded=0;orthogonalLoop=1;jettySize=auto;html=1;" edge="1" parent="1" source="mLHnHa8LqFLfgTgDsuUu-2" target="cg0EDjOptyZqs2Iak0Le-2">
          <mxGeometry relative="1" as="geometry" />
        </mxCell>
        <mxCell id="cg0EDjOptyZqs2Iak0Le-50" style="rounded=0;orthogonalLoop=1;jettySize=auto;html=1;" edge="1" parent="1" source="mLHnHa8LqFLfgTgDsuUu-2" target="cg0EDjOptyZqs2Iak0Le-49">
          <mxGeometry relative="1" as="geometry" />
        </mxCell>
        <mxCell id="mLHnHa8LqFLfgTgDsuUu-2" value="Utilisateur" style="shape=umlActor;verticalLabelPosition=bottom;verticalAlign=top;html=1;outlineConnect=0;strokeWidth=4;" vertex="1" parent="1">
          <mxGeometry x="10" y="420" width="90" height="160" as="geometry" />
        </mxCell>
        <mxCell id="mLHnHa8LqFLfgTgDsuUu-3" value="" style="rounded=0;whiteSpace=wrap;html=1;fillStyle=dots;" vertex="1" parent="1">
          <mxGeometry x="170" y="30" width="530" height="1040" as="geometry" />
        </mxCell>
        <mxCell id="mLHnHa8LqFLfgTgDsuUu-5" value="s&#39;inscrire" style="ellipse;whiteSpace=wrap;html=1;fillColor=#fff2cc;strokeColor=#d6b656;" vertex="1" parent="1">
          <mxGeometry x="190" y="90" width="120" height="80" as="geometry" />
        </mxCell>
        <mxCell id="cg0EDjOptyZqs2Iak0Le-36" style="rounded=0;orthogonalLoop=1;jettySize=auto;html=1;dashed=1;" edge="1" parent="1" source="mLHnHa8LqFLfgTgDsuUu-6" target="cg0EDjOptyZqs2Iak0Le-31">
          <mxGeometry relative="1" as="geometry" />
        </mxCell>
        <mxCell id="cg0EDjOptyZqs2Iak0Le-37" value="extend" style="edgeLabel;html=1;align=center;verticalAlign=middle;resizable=0;points=[];" vertex="1" connectable="0" parent="cg0EDjOptyZqs2Iak0Le-36">
          <mxGeometry x="0.16" y="-1" relative="1" as="geometry">
            <mxPoint as="offset" />
          </mxGeometry>
        </mxCell>
        <mxCell id="mLHnHa8LqFLfgTgDsuUu-6" value="gagner cosmetic / badge" style="ellipse;whiteSpace=wrap;html=1;fillColor=#dae8fc;strokeColor=#6c8ebf;" vertex="1" parent="1">
          <mxGeometry x="380" y="570" width="120" height="80" as="geometry" />
        </mxCell>
        <mxCell id="mLHnHa8LqFLfgTgDsuUu-7" value="personaliser ses cosmetiques" style="ellipse;whiteSpace=wrap;html=1;fillColor=#dae8fc;strokeColor=#6c8ebf;" vertex="1" parent="1">
          <mxGeometry x="490" y="700" width="120" height="80" as="geometry" />
        </mxCell>
        <mxCell id="cg0EDjOptyZqs2Iak0Le-22" style="rounded=0;orthogonalLoop=1;jettySize=auto;html=1;dashed=1;" edge="1" parent="1" source="mLHnHa8LqFLfgTgDsuUu-4" target="cg0EDjOptyZqs2Iak0Le-15">
          <mxGeometry relative="1" as="geometry" />
        </mxCell>
        <mxCell id="cg0EDjOptyZqs2Iak0Le-23" value="include" style="edgeLabel;html=1;align=center;verticalAlign=middle;resizable=0;points=[];" vertex="1" connectable="0" parent="cg0EDjOptyZqs2Iak0Le-22">
          <mxGeometry x="0.1517" y="1" relative="1" as="geometry">
            <mxPoint y="-1" as="offset" />
          </mxGeometry>
        </mxCell>
        <mxCell id="cg0EDjOptyZqs2Iak0Le-34" style="rounded=0;orthogonalLoop=1;jettySize=auto;html=1;entryX=0.5;entryY=1;entryDx=0;entryDy=0;dashed=1;" edge="1" parent="1" source="cg0EDjOptyZqs2Iak0Le-1" target="cg0EDjOptyZqs2Iak0Le-5">
          <mxGeometry relative="1" as="geometry" />
        </mxCell>
        <mxCell id="cg0EDjOptyZqs2Iak0Le-35" value="include" style="edgeLabel;html=1;align=center;verticalAlign=middle;resizable=0;points=[];" vertex="1" connectable="0" parent="cg0EDjOptyZqs2Iak0Le-34">
          <mxGeometry x="0.003" y="-2" relative="1" as="geometry">
            <mxPoint as="offset" />
          </mxGeometry>
        </mxCell>
        <mxCell id="cg0EDjOptyZqs2Iak0Le-1" value="scanner un dÃ©chet" style="ellipse;whiteSpace=wrap;html=1;fillColor=#d5e8d4;strokeColor=#82b366;" vertex="1" parent="1">
          <mxGeometry x="350" y="60" width="120" height="80" as="geometry" />
        </mxCell>
        <mxCell id="cg0EDjOptyZqs2Iak0Le-29" style="rounded=0;orthogonalLoop=1;jettySize=auto;html=1;dashed=1;" edge="1" parent="1" source="cg0EDjOptyZqs2Iak0Le-2" target="mLHnHa8LqFLfgTgDsuUu-6">
          <mxGeometry relative="1" as="geometry" />
        </mxCell>
        <mxCell id="cg0EDjOptyZqs2Iak0Le-30" value="include" style="edgeLabel;html=1;align=center;verticalAlign=middle;resizable=0;points=[];" vertex="1" connectable="0" parent="cg0EDjOptyZqs2Iak0Le-29">
          <mxGeometry x="-0.5588" y="-4" relative="1" as="geometry">
            <mxPoint as="offset" />
          </mxGeometry>
        </mxCell>
        <mxCell id="cg0EDjOptyZqs2Iak0Le-2" value="participer a un concours" style="ellipse;whiteSpace=wrap;html=1;fillColor=#e1d5e7;strokeColor=#9673a6;" vertex="1" parent="1">
          <mxGeometry x="240" y="760" width="120" height="80" as="geometry" />
        </mxCell>
        <mxCell id="cg0EDjOptyZqs2Iak0Le-27" style="rounded=0;orthogonalLoop=1;jettySize=auto;html=1;" edge="1" parent="1" source="cg0EDjOptyZqs2Iak0Le-4" target="cg0EDjOptyZqs2Iak0Le-5">
          <mxGeometry relative="1" as="geometry" />
        </mxCell>
        <mxCell id="cg0EDjOptyZqs2Iak0Le-39" style="rounded=0;orthogonalLoop=1;jettySize=auto;html=1;entryX=1;entryY=0.5;entryDx=0;entryDy=0;" edge="1" parent="1" source="cg0EDjOptyZqs2Iak0Le-4" target="cg0EDjOptyZqs2Iak0Le-38">
          <mxGeometry relative="1" as="geometry" />
        </mxCell>
        <mxCell id="cg0EDjOptyZqs2Iak0Le-4" value="Plateform" style="rounded=0;whiteSpace=wrap;html=1;" vertex="1" parent="1">
          <mxGeometry x="710" y="80" width="120" height="60" as="geometry" />
        </mxCell>
        <mxCell id="cg0EDjOptyZqs2Iak0Le-5" value="Donner explication / raison sur le trie" style="ellipse;whiteSpace=wrap;html=1;fillColor=#d5e8d4;strokeColor=#82b366;" vertex="1" parent="1">
          <mxGeometry x="540" y="170" width="120" height="80" as="geometry" />
        </mxCell>
        <mxCell id="cg0EDjOptyZqs2Iak0Le-6" value="regarder le score / progression" style="ellipse;whiteSpace=wrap;html=1;fillColor=#f8cecc;strokeColor=#b85450;" vertex="1" parent="1">
          <mxGeometry x="220" y="340" width="120" height="80" as="geometry" />
        </mxCell>
        <mxCell id="cg0EDjOptyZqs2Iak0Le-12" style="rounded=0;orthogonalLoop=1;jettySize=auto;html=1;entryX=1;entryY=0.5;entryDx=0;entryDy=0;dashed=1;" edge="1" parent="1" source="cg0EDjOptyZqs2Iak0Le-11" target="mLHnHa8LqFLfgTgDsuUu-4">
          <mxGeometry relative="1" as="geometry" />
        </mxCell>
        <mxCell id="cg0EDjOptyZqs2Iak0Le-13" value="extend" style="edgeLabel;html=1;align=center;verticalAlign=middle;resizable=0;points=[];" vertex="1" connectable="0" parent="cg0EDjOptyZqs2Iak0Le-12">
          <mxGeometry x="-0.4254" y="2" relative="1" as="geometry">
            <mxPoint as="offset" />
          </mxGeometry>
        </mxCell>
        <mxCell id="cg0EDjOptyZqs2Iak0Le-20" style="rounded=0;orthogonalLoop=1;jettySize=auto;html=1;dashed=1;" edge="1" parent="1" source="cg0EDjOptyZqs2Iak0Le-11" target="cg0EDjOptyZqs2Iak0Le-15">
          <mxGeometry relative="1" as="geometry" />
        </mxCell>
        <mxCell id="cg0EDjOptyZqs2Iak0Le-21" value="extend" style="edgeLabel;html=1;align=center;verticalAlign=middle;resizable=0;points=[];" vertex="1" connectable="0" parent="cg0EDjOptyZqs2Iak0Le-20">
          <mxGeometry x="-0.0521" y="6" relative="1" as="geometry">
            <mxPoint as="offset" />
          </mxGeometry>
        </mxCell>
        <mxCell id="cg0EDjOptyZqs2Iak0Le-43" style="rounded=0;orthogonalLoop=1;jettySize=auto;html=1;dashed=1;" edge="1" parent="1" source="cg0EDjOptyZqs2Iak0Le-11" target="cg0EDjOptyZqs2Iak0Le-6">
          <mxGeometry relative="1" as="geometry" />
        </mxCell>
        <mxCell id="cg0EDjOptyZqs2Iak0Le-44" value="extend" style="edgeLabel;html=1;align=center;verticalAlign=middle;resizable=0;points=[];" vertex="1" connectable="0" parent="cg0EDjOptyZqs2Iak0Le-43">
          <mxGeometry x="-0.1092" y="1" relative="1" as="geometry">
            <mxPoint y="-1" as="offset" />
          </mxGeometry>
        </mxCell>
        <mxCell id="cg0EDjOptyZqs2Iak0Le-45" style="rounded=0;orthogonalLoop=1;jettySize=auto;html=1;dashed=1;" edge="1" parent="1" source="cg0EDjOptyZqs2Iak0Le-11" target="mLHnHa8LqFLfgTgDsuUu-6">
          <mxGeometry relative="1" as="geometry" />
        </mxCell>
        <mxCell id="cg0EDjOptyZqs2Iak0Le-46" value="extend" style="edgeLabel;html=1;align=center;verticalAlign=middle;resizable=0;points=[];" vertex="1" connectable="0" parent="cg0EDjOptyZqs2Iak0Le-45">
          <mxGeometry x="0.1997" relative="1" as="geometry">
            <mxPoint as="offset" />
          </mxGeometry>
        </mxCell>
        <mxCell id="cg0EDjOptyZqs2Iak0Le-47" style="rounded=0;orthogonalLoop=1;jettySize=auto;html=1;dashed=1;" edge="1" parent="1" source="cg0EDjOptyZqs2Iak0Le-11" target="cg0EDjOptyZqs2Iak0Le-31">
          <mxGeometry relative="1" as="geometry" />
        </mxCell>
        <mxCell id="cg0EDjOptyZqs2Iak0Le-48" value="extend" style="edgeLabel;html=1;align=center;verticalAlign=middle;resizable=0;points=[];" vertex="1" connectable="0" parent="cg0EDjOptyZqs2Iak0Le-47">
          <mxGeometry x="-0.2173" y="4" relative="1" as="geometry">
            <mxPoint as="offset" />
          </mxGeometry>
        </mxCell>
        <mxCell id="cg0EDjOptyZqs2Iak0Le-11" value="avoir un compte" style="ellipse;whiteSpace=wrap;html=1;fillColor=#e3c800;strokeColor=#B09500;fontColor=#000000;" vertex="1" parent="1">
          <mxGeometry x="570" y="300" width="120" height="80" as="geometry" />
        </mxCell>
        <mxCell id="cg0EDjOptyZqs2Iak0Le-18" style="rounded=0;orthogonalLoop=1;jettySize=auto;html=1;exitX=0.5;exitY=1;exitDx=0;exitDy=0;dashed=1;" edge="1" parent="1" source="cg0EDjOptyZqs2Iak0Le-15" target="mLHnHa8LqFLfgTgDsuUu-6">
          <mxGeometry relative="1" as="geometry" />
        </mxCell>
        <mxCell id="cg0EDjOptyZqs2Iak0Le-19" value="include" style="edgeLabel;html=1;align=center;verticalAlign=middle;resizable=0;points=[];" vertex="1" connectable="0" parent="cg0EDjOptyZqs2Iak0Le-18">
          <mxGeometry x="0.0273" y="-1" relative="1" as="geometry">
            <mxPoint as="offset" />
          </mxGeometry>
        </mxCell>
        <mxCell id="cg0EDjOptyZqs2Iak0Le-15" value="gagner des points" style="ellipse;whiteSpace=wrap;html=1;fillColor=#f8cecc;strokeColor=#b85450;" vertex="1" parent="1">
          <mxGeometry x="360" y="410" width="120" height="80" as="geometry" />
        </mxCell>
        <mxCell id="cg0EDjOptyZqs2Iak0Le-28" style="rounded=0;orthogonalLoop=1;jettySize=auto;html=1;entryX=0.108;entryY=0.75;entryDx=0;entryDy=0;entryPerimeter=0;" edge="1" parent="1" source="mLHnHa8LqFLfgTgDsuUu-2" target="cg0EDjOptyZqs2Iak0Le-6">
          <mxGeometry relative="1" as="geometry" />
        </mxCell>
        <mxCell id="cg0EDjOptyZqs2Iak0Le-32" style="rounded=0;orthogonalLoop=1;jettySize=auto;html=1;exitX=0.5;exitY=1;exitDx=0;exitDy=0;entryX=1;entryY=0;entryDx=0;entryDy=0;dashed=1;" edge="1" parent="1" source="cg0EDjOptyZqs2Iak0Le-31" target="mLHnHa8LqFLfgTgDsuUu-7">
          <mxGeometry relative="1" as="geometry" />
        </mxCell>
        <mxCell id="cg0EDjOptyZqs2Iak0Le-33" value="extend" style="edgeLabel;html=1;align=center;verticalAlign=middle;resizable=0;points=[];" vertex="1" connectable="0" parent="cg0EDjOptyZqs2Iak0Le-32">
          <mxGeometry x="-0.0919" y="1" relative="1" as="geometry">
            <mxPoint as="offset" />
          </mxGeometry>
        </mxCell>
        <mxCell id="cg0EDjOptyZqs2Iak0Le-31" value="avoir des cosmetiques" style="ellipse;whiteSpace=wrap;html=1;fillColor=#dae8fc;strokeColor=#6c8ebf;" vertex="1" parent="1">
          <mxGeometry x="560" y="560" width="120" height="80" as="geometry" />
        </mxCell>
        <mxCell id="cg0EDjOptyZqs2Iak0Le-40" style="rounded=0;orthogonalLoop=1;jettySize=auto;html=1;entryX=0.5;entryY=0;entryDx=0;entryDy=0;dashed=1;" edge="1" parent="1" source="cg0EDjOptyZqs2Iak0Le-38" target="cg0EDjOptyZqs2Iak0Le-5">
          <mxGeometry relative="1" as="geometry" />
        </mxCell>
        <mxCell id="cg0EDjOptyZqs2Iak0Le-42" value="extend" style="edgeLabel;html=1;align=center;verticalAlign=middle;resizable=0;points=[];" vertex="1" connectable="0" parent="cg0EDjOptyZqs2Iak0Le-40">
          <mxGeometry x="-0.16" y="1" relative="1" as="geometry">
            <mxPoint as="offset" />
          </mxGeometry>
        </mxCell>
        <mxCell id="cg0EDjOptyZqs2Iak0Le-38" value="Recherche d&#39;information dans la base de donnÃ©es" style="ellipse;whiteSpace=wrap;html=1;fillColor=#fad7ac;strokeColor=#b46504;" vertex="1" parent="1">
          <mxGeometry x="540" y="40" width="120" height="80" as="geometry" />
        </mxCell>
        <mxCell id="cg0EDjOptyZqs2Iak0Le-51" style="rounded=0;orthogonalLoop=1;jettySize=auto;html=1;dashed=1;" edge="1" parent="1" source="cg0EDjOptyZqs2Iak0Le-49" target="cg0EDjOptyZqs2Iak0Le-2">
          <mxGeometry relative="1" as="geometry" />
        </mxCell>
        <mxCell id="cg0EDjOptyZqs2Iak0Le-52" value="include" style="edgeLabel;html=1;align=center;verticalAlign=middle;resizable=0;points=[];" vertex="1" connectable="0" parent="cg0EDjOptyZqs2Iak0Le-51">
          <mxGeometry x="-0.0667" y="-3" relative="1" as="geometry">
            <mxPoint as="offset" />
          </mxGeometry>
        </mxCell>
        <mxCell id="cg0EDjOptyZqs2Iak0Le-54" style="rounded=0;orthogonalLoop=1;jettySize=auto;html=1;exitX=1;exitY=0.5;exitDx=0;exitDy=0;entryX=0;entryY=0.5;entryDx=0;entryDy=0;dashed=1;" edge="1" parent="1" source="cg0EDjOptyZqs2Iak0Le-49" target="cg0EDjOptyZqs2Iak0Le-53">
          <mxGeometry relative="1" as="geometry" />
        </mxCell>
        <mxCell id="cg0EDjOptyZqs2Iak0Le-55" value="include" style="edgeLabel;html=1;align=center;verticalAlign=middle;resizable=0;points=[];" vertex="1" connectable="0" parent="cg0EDjOptyZqs2Iak0Le-54">
          <mxGeometry x="0.0645" y="-3" relative="1" as="geometry">
            <mxPoint x="1" as="offset" />
          </mxGeometry>
        </mxCell>
        <mxCell id="cg0EDjOptyZqs2Iak0Le-49" value="Rejoindre un groupe" style="ellipse;whiteSpace=wrap;html=1;fillColor=#e1d5e7;strokeColor=#9673a6;" vertex="1" parent="1">
          <mxGeometry x="200" y="960" width="120" height="80" as="geometry" />
        </mxCell>
        <mxCell id="cg0EDjOptyZqs2Iak0Le-53" value="Comparer les scores / progression" style="ellipse;whiteSpace=wrap;html=1;fillColor=#e1d5e7;strokeColor=#9673a6;" vertex="1" parent="1">
          <mxGeometry x="440" y="970" width="120" height="80" as="geometry" />
        </mxCell>
        <mxCell id="cg0EDjOptyZqs2Iak0Le-57" style="rounded=0;orthogonalLoop=1;jettySize=auto;html=1;dashed=1;" edge="1" parent="1" source="cg0EDjOptyZqs2Iak0Le-56" target="cg0EDjOptyZqs2Iak0Le-2">
          <mxGeometry relative="1" as="geometry" />
        </mxCell>
        <mxCell id="cg0EDjOptyZqs2Iak0Le-60" value="extend" style="edgeLabel;html=1;align=center;verticalAlign=middle;resizable=0;points=[];" vertex="1" connectable="0" parent="cg0EDjOptyZqs2Iak0Le-57">
          <mxGeometry x="-0.0826" relative="1" as="geometry">
            <mxPoint as="offset" />
          </mxGeometry>
        </mxCell>
        <mxCell id="cg0EDjOptyZqs2Iak0Le-58" style="rounded=0;orthogonalLoop=1;jettySize=auto;html=1;entryX=1;entryY=0;entryDx=0;entryDy=0;dashed=1;" edge="1" parent="1" source="cg0EDjOptyZqs2Iak0Le-56" target="cg0EDjOptyZqs2Iak0Le-49">
          <mxGeometry relative="1" as="geometry" />
        </mxCell>
        <mxCell id="cg0EDjOptyZqs2Iak0Le-61" value="extend" style="edgeLabel;html=1;align=center;verticalAlign=middle;resizable=0;points=[];" vertex="1" connectable="0" parent="cg0EDjOptyZqs2Iak0Le-58">
          <mxGeometry x="-0.2559" y="-1" relative="1" as="geometry">
            <mxPoint as="offset" />
          </mxGeometry>
        </mxCell>
        <mxCell id="cg0EDjOptyZqs2Iak0Le-59" style="rounded=0;orthogonalLoop=1;jettySize=auto;html=1;entryX=0.5;entryY=0;entryDx=0;entryDy=0;dashed=1;" edge="1" parent="1" source="cg0EDjOptyZqs2Iak0Le-56" target="cg0EDjOptyZqs2Iak0Le-53">
          <mxGeometry relative="1" as="geometry" />
        </mxCell>
        <mxCell id="cg0EDjOptyZqs2Iak0Le-62" value="extend" style="edgeLabel;html=1;align=center;verticalAlign=middle;resizable=0;points=[];" vertex="1" connectable="0" parent="cg0EDjOptyZqs2Iak0Le-59">
          <mxGeometry x="-0.4322" y="-2" relative="1" as="geometry">
            <mxPoint as="offset" />
          </mxGeometry>
        </mxCell>
        <mxCell id="cg0EDjOptyZqs2Iak0Le-56" value="avoir un compte" style="ellipse;whiteSpace=wrap;html=1;fillColor=#e3c800;strokeColor=#B09500;fontColor=#000000;" vertex="1" parent="1">
          <mxGeometry x="410" y="810" width="120" height="80" as="geometry" />
        </mxCell>
        <mxCell id="mLHnHa8LqFLfgTgDsuUu-4" value="se connecter Ã  son compte utilisateur" style="ellipse;whiteSpace=wrap;html=1;fillColor=#fff2cc;strokeColor=#d6b656;" vertex="1" parent="1">
          <mxGeometry x="320" y="200" width="120" height="80" as="geometry" />
        </mxCell>
      </root>
    </mxGraphModel>
  </diagram>
  <diagram id="szhHBWaJPsQ6VjjwFch9" name="exemple">
    <mxGraphModel grid="1" page="1" gridSize="10" guides="1" tooltips="1" connect="1" arrows="1" fold="1" pageScale="1" pageWidth="850" pageHeight="1100" math="0" shadow="0">
      <root>
        <mxCell id="0" />
        <mxCell id="1" parent="0" />
        <mxCell id="x6Fl0U2vRY8VMPLQBc9v-6" style="rounded=0;orthogonalLoop=1;jettySize=auto;html=1;entryX=0;entryY=0;entryDx=0;entryDy=0;" edge="1" parent="1" source="OapvqyzFPW_RmW6qmvtB-1" target="x6Fl0U2vRY8VMPLQBc9v-3">
          <mxGeometry relative="1" as="geometry" />
        </mxCell>
        <mxCell id="x6Fl0U2vRY8VMPLQBc9v-8" value="include" style="edgeLabel;html=1;align=center;verticalAlign=middle;resizable=0;points=[];" vertex="1" connectable="0" parent="x6Fl0U2vRY8VMPLQBc9v-6">
          <mxGeometry x="0.2587" y="-1" relative="1" as="geometry">
            <mxPoint as="offset" />
          </mxGeometry>
        </mxCell>
        <mxCell id="OapvqyzFPW_RmW6qmvtB-1" value="&lt;div&gt;conduire la voiture&lt;/div&gt;" style="ellipse;whiteSpace=wrap;html=1;" vertex="1" parent="1">
          <mxGeometry x="260" y="290" width="120" height="80" as="geometry" />
        </mxCell>
        <mxCell id="x6Fl0U2vRY8VMPLQBc9v-1" style="rounded=0;orthogonalLoop=1;jettySize=auto;html=1;endArrow=none;endFill=0;startArrow=classic;startFill=1;" edge="1" parent="1" source="OapvqyzFPW_RmW6qmvtB-2" target="OapvqyzFPW_RmW6qmvtB-1">
          <mxGeometry relative="1" as="geometry" />
        </mxCell>
        <mxCell id="x6Fl0U2vRY8VMPLQBc9v-2" value="extend" style="edgeLabel;html=1;align=center;verticalAlign=middle;resizable=0;points=[];" vertex="1" connectable="0" parent="x6Fl0U2vRY8VMPLQBc9v-1">
          <mxGeometry x="-0.1706" y="7" relative="1" as="geometry">
            <mxPoint as="offset" />
          </mxGeometry>
        </mxCell>
        <mxCell id="OapvqyzFPW_RmW6qmvtB-2" value="dÃ©marer la voiture" style="ellipse;whiteSpace=wrap;html=1;" vertex="1" parent="1">
          <mxGeometry x="510" y="100" width="120" height="80" as="geometry" />
        </mxCell>
        <mxCell id="x6Fl0U2vRY8VMPLQBc9v-3" value="accelerer" style="ellipse;whiteSpace=wrap;html=1;" vertex="1" parent="1">
          <mxGeometry x="600" y="390" width="120" height="80" as="geometry" />
        </mxCell>
        <mxCell id="x6Fl0U2vRY8VMPLQBc9v-5" value="freiner" style="ellipse;whiteSpace=wrap;html=1;" vertex="1" parent="1">
          <mxGeometry x="410" y="490" width="120" height="80" as="geometry" />
        </mxCell>
        <mxCell id="x6Fl0U2vRY8VMPLQBc9v-7" style="rounded=0;orthogonalLoop=1;jettySize=auto;html=1;entryX=0.5;entryY=0.125;entryDx=0;entryDy=0;entryPerimeter=0;" edge="1" parent="1" source="OapvqyzFPW_RmW6qmvtB-1" target="x6Fl0U2vRY8VMPLQBc9v-5">
          <mxGeometry relative="1" as="geometry" />
        </mxCell>
        <mxCell id="x6Fl0U2vRY8VMPLQBc9v-9" value="include" style="edgeLabel;html=1;align=center;verticalAlign=middle;resizable=0;points=[];" vertex="1" connectable="0" parent="x6Fl0U2vRY8VMPLQBc9v-7">
          <mxGeometry x="0.0082" y="6" relative="1" as="geometry">
            <mxPoint as="offset" />
          </mxGeometry>
        </mxCell>
      </root>
    </mxGraphModel>
  </diagram>
</mxfile>
